<?xml version="1.0" encoding="UTF-8" standalone="no"?>
<!-- Generator: Adobe Illustrator 19.0.0, SVG Export Plug-In . SVG Version: 6.00 Build 0)  -->

<svg
   xmlns:dc="http://purl.org/dc/elements/1.1/"
   xmlns:cc="http://creativecommons.org/ns#"
   xmlns:rdf="http://www.w3.org/1999/02/22-rdf-syntax-ns#"
   xmlns:svg="http://www.w3.org/2000/svg"
   xmlns="http://www.w3.org/2000/svg"
   xmlns:sodipodi="http://sodipodi.sourceforge.net/DTD/sodipodi-0.dtd"
   xmlns:inkscape="http://www.inkscape.org/namespaces/inkscape"
   version="1.1"
   id="Capa_1"
   x="0px"
   y="0px"
   viewBox="0 0 38.894654 38.894654"
   xml:space="preserve"
   sodipodi:docname="cancel.svg"
   width="38.894653"
   height="38.894653"
   inkscape:version="0.92.3 (2405546, 2018-03-11)"><metadata
   id="metadata47"><rdf:RDF><cc:Work
       rdf:about=""><dc:format>image/svg+xml</dc:format><dc:type
         rdf:resource="http://purl.org/dc/dcmitype/StillImage" /></cc:Work></rdf:RDF></metadata><defs
   id="defs45">
	

		
	
			
			
		</defs><sodipodi:namedview
   pagecolor="#ffffff"
   bordercolor="#666666"
   borderopacity="1"
   objecttolerance="10"
   gridtolerance="10"
   guidetolerance="10"
   inkscape:pageopacity="0"
   inkscape:pageshadow="2"
   inkscape:window-width="1920"
   inkscape:window-height="1003"
   id="namedview43"
   showgrid="false"
   inkscape:zoom="5.2149125"
   inkscape:cx="-14.744869"
   inkscape:cy="-0.64698255"
   inkscape:window-x="-9"
   inkscape:window-y="-9"
   inkscape:window-maximized="1"
   inkscape:current-layer="Capa_1" />
<g
   id="g865"
   transform="matrix(0.49371059,0,0,0.49371059,0.03766565,0.03766576)"><path
     d="m 67.112385,11.515265 c -15.353738,-15.3537379 -40.24676,-15.3537379 -55.597273,3.07e-4 -15.3535849,15.353585 -15.3535849,40.246454 6.14e-4,55.596967 15.349899,15.353584 40.242921,15.353584 55.596659,-3.07e-4 15.353738,-15.350206 15.353738,-40.243075 0,-55.596967 z M 62.479497,62.478883 C 49.684382,75.273997 28.940504,75.273997 16.148922,62.479497 3.3538071,49.6873 3.3538071,28.943422 16.148614,16.148614 c 12.79189,-12.7949604 33.535768,-12.7949604 46.330576,0 12.794807,12.794961 12.794807,33.538686 3.07e-4,46.330269 z"
     id="path2"
     inkscape:connector-curvature="0"
     style="fill:#083864;fill-opacity:0.99607843;stroke:#083864;stroke-width:0.15356962;stroke-opacity:0.99607843" /><path
     d="m 55.52955,23.098101 c -1.279389,-1.279389 -3.353807,-1.279389 -4.633196,0 L 39.313365,34.68109 27.730375,23.098101 c -1.279388,-1.279389 -3.353807,-1.279389 -4.633196,0 -1.279388,1.279388 -1.279388,3.353807 0,4.633196 l 11.58299,11.582989 -11.57869,11.578689 c -1.279388,1.279389 -1.279388,3.353808 0,4.633196 1.279389,1.279389 3.353808,1.279389 4.633196,0 L 39.313365,43.947482 50.895432,55.52955 c 1.279389,1.279388 3.353808,1.279388 4.633196,0 1.279389,-1.279389 1.279389,-3.353807 0,-4.633196 L 43.94656,39.314286 55.52955,27.731297 c 1.279388,-1.279389 1.279388,-3.353654 0,-4.633196 z"
     id="path4"
     inkscape:connector-curvature="0"
     style="fill:#083864;fill-opacity:0.99607843;stroke:#083864;stroke-width:0.15356962;stroke-opacity:0.99607843" /></g>
<g
   id="g12"
   transform="translate(0.07629095,0.07629118)">
</g>
<g
   id="g14"
   transform="translate(0.07629095,0.07629118)">
</g>
<g
   id="g16"
   transform="translate(0.07629095,0.07629118)">
</g>
<g
   id="g18"
   transform="translate(0.07629095,0.07629118)">
</g>
<g
   id="g20"
   transform="translate(0.07629095,0.07629118)">
</g>
<g
   id="g22"
   transform="translate(0.07629095,0.07629118)">
</g>
<g
   id="g24"
   transform="translate(0.07629095,0.07629118)">
</g>
<g
   id="g26"
   transform="translate(0.07629095,0.07629118)">
</g>
<g
   id="g28"
   transform="translate(0.07629095,0.07629118)">
</g>
<g
   id="g30"
   transform="translate(0.07629095,0.07629118)">
</g>
<g
   id="g32"
   transform="translate(0.07629095,0.07629118)">
</g>
<g
   id="g34"
   transform="translate(0.07629095,0.07629118)">
</g>
<g
   id="g36"
   transform="translate(0.07629095,0.07629118)">
</g>
<g
   id="g38"
   transform="translate(0.07629095,0.07629118)">
</g>
<g
   id="g40"
   transform="translate(0.07629095,0.07629118)">
</g>
</svg>