<?xml version="1.0" encoding="UTF-8" standalone="no"?>
<!-- Generator: Adobe Illustrator 19.0.0, SVG Export Plug-In . SVG Version: 6.00 Build 0)  -->

<svg
   xmlns:dc="http://purl.org/dc/elements/1.1/"
   xmlns:cc="http://creativecommons.org/ns#"
   xmlns:rdf="http://www.w3.org/1999/02/22-rdf-syntax-ns#"
   xmlns:svg="http://www.w3.org/2000/svg"
   xmlns="http://www.w3.org/2000/svg"
   xmlns:sodipodi="http://sodipodi.sourceforge.net/DTD/sodipodi-0.dtd"
   xmlns:inkscape="http://www.inkscape.org/namespaces/inkscape"
   version="1.1"
   id="Capa_1"
   x="0px"
   y="0px"
   viewBox="0 0 64.162682 71.593224"
   xml:space="preserve"
   sodipodi:docname="editicon.svg"
   width="64.162682"
   height="71.593224"
   inkscape:version="0.92.3 (2405546, 2018-03-11)"><metadata
   id="metadata53"><rdf:RDF><cc:Work
       rdf:about=""><dc:format>image/svg+xml</dc:format><dc:type
         rdf:resource="http://purl.org/dc/dcmitype/StillImage" /><dc:title /></cc:Work></rdf:RDF></metadata><defs
   id="defs51" /><sodipodi:namedview
   pagecolor="#ffffff"
   bordercolor="#666666"
   borderopacity="1"
   objecttolerance="10"
   gridtolerance="10"
   guidetolerance="10"
   inkscape:pageopacity="0"
   inkscape:pageshadow="2"
   inkscape:window-width="1920"
   inkscape:window-height="1003"
   id="namedview49"
   showgrid="false"
   inkscape:zoom="5.2149125"
   inkscape:cx="-4.342754"
   inkscape:cy="39.962277"
   inkscape:window-x="-9"
   inkscape:window-y="-9"
   inkscape:window-maximized="1"
   inkscape:current-layer="Capa_1" />
<g
   id="g16"
   transform="matrix(0.13983051,0,0,0.13983051,-3.7152967,0)"
   style="fill:#083864;fill-opacity:0.99607843">
	<g
   id="g14"
   style="fill:#083864;fill-opacity:0.99607843">
		<g
   id="g12"
   style="fill:#083864;fill-opacity:0.99607843">
			<path
   d="m 352.459,220 c 0,-11.046 -8.954,-20 -20,-20 h -206 c -11.046,0 -20,8.954 -20,20 0,11.046 8.954,20 20,20 h 206 c 11.046,0 20,-8.954 20,-20 z"
   id="path2"
   inkscape:connector-curvature="0"
   style="fill:#083864;fill-opacity:0.99607843" />
			<path
   d="m 126.459,280 c -11.046,0 -20,8.954 -20,20 0,11.046 8.954,20 20,20 H 251.57 c 11.046,0 20,-8.954 20,-20 0,-11.046 -8.954,-20 -20,-20 z"
   id="path4"
   inkscape:connector-curvature="0"
   style="fill:#083864;fill-opacity:0.99607843" />
			<path
   d="M 173.459,472 H 106.57 c -22.056,0 -40,-17.944 -40,-40 V 80 c 0,-22.056 17.944,-40 40,-40 h 245.889 c 22.056,0 40,17.944 40,40 v 123 c 0,11.046 8.954,20 20,20 11.046,0 20,-8.954 20,-20 V 80 c 0,-44.112 -35.888,-80 -80,-80 H 106.57 c -44.112,0 -80,35.888 -80,80 v 352 c 0,44.112 35.888,80 80,80 h 66.889 c 11.046,0 20,-8.954 20,-20 0,-11.046 -8.954,-20 -20,-20 z"
   id="path6"
   inkscape:connector-curvature="0"
   style="fill:#083864;fill-opacity:0.99607843" />
			<path
   d="m 467.884,289.572 c -23.394,-23.394 -61.458,-23.395 -84.837,-0.016 l -109.803,109.56 c -2.332,2.327 -4.052,5.193 -5.01,8.345 l -23.913,78.725 c -2.12,6.98 -0.273,14.559 4.821,19.78 3.816,3.911 9,6.034 14.317,6.034 1.779,0 3.575,-0.238 5.338,-0.727 l 80.725,-22.361 c 3.322,-0.92 6.35,-2.683 8.79,-5.119 L 467.885,374.426 c 23.394,-23.394 23.394,-61.458 -10e-4,-84.854 z m -134.108,162.196 -40.612,11.25 11.885,-39.129 74.089,-73.925 28.29,28.29 z m 105.839,-105.638 -3.875,3.867 -28.285,-28.285 3.862,-3.854 c 7.798,-7.798 20.486,-7.798 28.284,0 7.798,7.798 7.798,20.486 0.014,28.272 z"
   id="path8"
   inkscape:connector-curvature="0"
   style="fill:#083864;fill-opacity:0.99607843" />
			<path
   d="m 332.459,120 h -206 c -11.046,0 -20,8.954 -20,20 0,11.046 8.954,20 20,20 h 206 c 11.046,0 20,-8.954 20,-20 0,-11.046 -8.954,-20 -20,-20 z"
   id="path10"
   inkscape:connector-curvature="0"
   style="fill:#083864;fill-opacity:0.99607843" />
		</g>
	</g>
</g>
<g
   id="g18"
   transform="translate(-26.57)">
</g>
<g
   id="g20"
   transform="translate(-26.57)">
</g>
<g
   id="g22"
   transform="translate(-26.57)">
</g>
<g
   id="g24"
   transform="translate(-26.57)">
</g>
<g
   id="g26"
   transform="translate(-26.57)">
</g>
<g
   id="g28"
   transform="translate(-26.57)">
</g>
<g
   id="g30"
   transform="translate(-26.57)">
</g>
<g
   id="g32"
   transform="translate(-26.57)">
</g>
<g
   id="g34"
   transform="translate(-26.57)">
</g>
<g
   id="g36"
   transform="translate(-26.57)">
</g>
<g
   id="g38"
   transform="translate(-26.57)">
</g>
<g
   id="g40"
   transform="translate(-26.57)">
</g>
<g
   id="g42"
   transform="translate(-26.57)">
</g>
<g
   id="g44"
   transform="translate(-26.57)">
</g>
<g
   id="g46"
   transform="translate(-26.57)">
</g>
</svg>