<?xml version="1.0" encoding="UTF-8" standalone="no"?>
<!-- Generator: Adobe Illustrator 19.0.0, SVG Export Plug-In . SVG Version: 6.00 Build 0)  -->

<svg
   xmlns:dc="http://purl.org/dc/elements/1.1/"
   xmlns:cc="http://creativecommons.org/ns#"
   xmlns:rdf="http://www.w3.org/1999/02/22-rdf-syntax-ns#"
   xmlns:svg="http://www.w3.org/2000/svg"
   xmlns="http://www.w3.org/2000/svg"
   xmlns:sodipodi="http://sodipodi.sourceforge.net/DTD/sodipodi-0.dtd"
   xmlns:inkscape="http://www.inkscape.org/namespaces/inkscape"
   version="1.1"
   id="Capa_1"
   x="0px"
   y="0px"
   viewBox="0 0 42.574826 49.525811"
   xml:space="preserve"
   sodipodi:docname="information.svg"
   width="42.574825"
   height="49.52581"
   inkscape:version="0.92.3 (2405546, 2018-03-11)"><metadata
   id="metadata49"><rdf:RDF><cc:Work
       rdf:about=""><dc:format>image/svg+xml</dc:format><dc:type
         rdf:resource="http://purl.org/dc/dcmitype/StillImage" /><dc:title /></cc:Work></rdf:RDF></metadata><defs
   id="defs47">
	

		
	
			
			
			
		
	

		
	
			
			
			
		</defs><sodipodi:namedview
   pagecolor="#ffffff"
   bordercolor="#666666"
   borderopacity="1"
   objecttolerance="10"
   gridtolerance="10"
   guidetolerance="10"
   inkscape:pageopacity="0"
   inkscape:pageshadow="2"
   inkscape:window-width="1920"
   inkscape:window-height="1013"
   id="namedview45"
   showgrid="false"
   inkscape:zoom="3.6875"
   inkscape:cx="-19.157832"
   inkscape:cy="-20.876014"
   inkscape:window-x="1911"
   inkscape:window-y="-9"
   inkscape:window-maximized="1"
   inkscape:current-layer="Capa_1" />

<g
   id="g14"
   transform="translate(-35.17676,0.91253)">
</g>
<g
   id="g16"
   transform="translate(-35.17676,0.91253)">
</g>
<g
   id="g18"
   transform="translate(-35.17676,0.91253)">
</g>
<g
   id="g20"
   transform="translate(-35.17676,0.91253)">
</g>
<g
   id="g22"
   transform="translate(-35.17676,0.91253)">
</g>
<g
   id="g24"
   transform="translate(-35.17676,0.91253)">
</g>
<g
   id="g26"
   transform="translate(-35.17676,0.91253)">
</g>
<g
   id="g28"
   transform="translate(-35.17676,0.91253)">
</g>
<g
   id="g30"
   transform="translate(-35.17676,0.91253)">
</g>
<g
   id="g32"
   transform="translate(-35.17676,0.91253)">
</g>
<g
   id="g34"
   transform="translate(-35.17676,0.91253)">
</g>
<g
   id="g36"
   transform="translate(-35.17676,0.91253)">
</g>
<g
   id="g38"
   transform="translate(-35.17676,0.91253)">
</g>
<g
   id="g40"
   transform="translate(-35.17676,0.91253)">
</g>
<g
   id="g42"
   transform="translate(-35.17676,0.91253)">
</g>
<g
   id="g834"
   transform="matrix(0.66017691,0,0,0.66017691,5.694916,6.624697)"><path
     inkscape:connector-curvature="0"
     id="path860"
     d="M 23.618662,0 C 10.564495,0 0,10.559111 0,23.605064 0,34.250576 7.0046523,43.091357 16.45185,46.101329 l 5.349638,7.88523 c 0.408611,0.602268 1.089314,0.962979 1.817174,0.962979 0.727861,0 1.408562,-0.360711 1.817175,-0.962979 l 5.349427,-7.88523 C 40.236639,43.089964 47.237328,34.245972 47.237328,23.605064 47.237328,10.550858 36.664372,0 23.618662,0 Z"
     style="color:#000000;font-style:normal;font-variant:normal;font-weight:normal;font-stretch:normal;font-size:medium;line-height:normal;font-family:sans-serif;font-variant-ligatures:normal;font-variant-position:normal;font-variant-caps:normal;font-variant-numeric:normal;font-variant-alternates:normal;font-feature-settings:normal;text-indent:0;text-align:start;text-decoration:none;text-decoration-line:none;text-decoration-style:solid;text-decoration-color:#000000;letter-spacing:normal;word-spacing:normal;text-transform:none;writing-mode:lr-tb;direction:ltr;text-orientation:mixed;dominant-baseline:auto;baseline-shift:baseline;text-anchor:start;white-space:normal;shape-padding:0;clip-rule:nonzero;display:inline;overflow:visible;visibility:visible;opacity:0.6;isolation:auto;mix-blend-mode:normal;color-interpolation:sRGB;color-interpolation-filters:linearRGB;solid-color:#000000;solid-opacity:1;vector-effect:none;fill:#083864;fill-opacity:0.99607843;fill-rule:nonzero;stroke:none;stroke-width:0.10711411;stroke-linecap:butt;stroke-linejoin:miter;stroke-miterlimit:4;stroke-dasharray:none;stroke-dashoffset:0;stroke-opacity:1;color-rendering:auto;image-rendering:auto;shape-rendering:auto;text-rendering:auto;enable-background:accumulate" /><path
     inkscape:connector-curvature="0"
     id="path895"
     d="m 23.618664,4.4170722 c -10.660318,0 -19.3340974,8.6675318 -19.3340974,19.3204988 0,8.947626 6.0553214,16.35471 14.1091464,18.606684 0.475704,0.132947 0.888715,0.430236 1.166119,0.838921 l 4.058832,5.98249 4.059036,-5.982699 c 0.277286,-0.408679 0.690189,-0.705866 1.165916,-0.838922 8.044923,-2.2494 14.109146,-9.649947 14.109146,-18.606474 0,-10.652967 -8.67378,-19.3204988 -19.334098,-19.3204988 z"
     style="color:#000000;font-style:normal;font-variant:normal;font-weight:normal;font-stretch:normal;font-size:medium;line-height:normal;font-family:sans-serif;font-variant-ligatures:normal;font-variant-position:normal;font-variant-caps:normal;font-variant-numeric:normal;font-variant-alternates:normal;font-feature-settings:normal;text-indent:0;text-align:start;text-decoration:none;text-decoration-line:none;text-decoration-style:solid;text-decoration-color:#000000;letter-spacing:normal;word-spacing:normal;text-transform:none;writing-mode:lr-tb;direction:ltr;text-orientation:mixed;dominant-baseline:auto;baseline-shift:baseline;text-anchor:start;white-space:normal;shape-padding:0;clip-rule:nonzero;display:inline;overflow:visible;visibility:visible;opacity:0.6;isolation:auto;mix-blend-mode:normal;color-interpolation:sRGB;color-interpolation-filters:linearRGB;solid-color:#000000;solid-opacity:1;vector-effect:none;fill:#fcf8f2;fill-opacity:1;fill-rule:nonzero;stroke:none;stroke-width:0.10711411;stroke-linecap:butt;stroke-linejoin:miter;stroke-miterlimit:4;stroke-dasharray:none;stroke-dashoffset:0;stroke-opacity:1;color-rendering:auto;image-rendering:auto;shape-rendering:auto;text-rendering:auto;enable-background:accumulate" /><path
     inkscape:connector-curvature="0"
     style="fill:#083864;fill-opacity:0.99607843;stroke:#000000;stroke-width:0.10711411;stroke-opacity:1"
     id="path951"
     d="m 23.603561,19.907803 c -1.362277,0 -2.33091,0.575202 -2.33091,1.422796 v 11.533298 c 0,0.726448 0.96874,1.453003 2.33091,1.453003 1.301651,0 2.361116,-0.726555 2.361116,-1.453003 V 21.330599 c 0,-0.847594 -1.059465,-1.422796 -2.361116,-1.422796 z" /><path
     inkscape:connector-curvature="0"
     style="fill:#083864;fill-opacity:0.99607843;stroke:#000000;stroke-width:0.10711411;stroke-opacity:1"
     id="path953"
     d="m 23.633767,12.794033 c -1.392483,0 -2.482262,0.998946 -2.482262,2.149245 0,1.150298 1.089779,2.179558 2.482262,2.179558 1.362277,0 2.452056,-1.02926 2.452056,-2.179558 0,-1.150192 -1.089886,-2.149245 -2.452056,-2.149245 z" /></g></svg>