<?xml version="1.0" encoding="UTF-8" standalone="no"?>
<svg
   xmlns:dc="http://purl.org/dc/elements/1.1/"
   xmlns:cc="http://creativecommons.org/ns#"
   xmlns:rdf="http://www.w3.org/1999/02/22-rdf-syntax-ns#"
   xmlns:svg="http://www.w3.org/2000/svg"
   xmlns="http://www.w3.org/2000/svg"
   xmlns:sodipodi="http://sodipodi.sourceforge.net/DTD/sodipodi-0.dtd"
   xmlns:inkscape="http://www.inkscape.org/namespaces/inkscape"
   id="svg1922"
   width="47.934147"
   height="41.942768"
   version="1.1"
   viewBox="0 0 47.934147 41.942766"
   sodipodi:docname="moviehome.svg"
   inkscape:version="0.92.3 (2405546, 2018-03-11)">
  <metadata
     id="metadata16">
    <rdf:RDF>
      <cc:Work
         rdf:about="">
        <dc:format>image/svg+xml</dc:format>
        <dc:type
           rdf:resource="http://purl.org/dc/dcmitype/StillImage" />
      </cc:Work>
    </rdf:RDF>
  </metadata>
  <defs
     id="defs14" />
  <sodipodi:namedview
     pagecolor="#ffffff"
     bordercolor="#666666"
     borderopacity="1"
     objecttolerance="10"
     gridtolerance="10"
     guidetolerance="10"
     inkscape:pageopacity="0"
     inkscape:pageshadow="2"
     inkscape:window-width="1920"
     inkscape:window-height="1003"
     id="namedview12"
     showgrid="false"
     inkscape:zoom="6.3658185"
     inkscape:cx="21.185192"
     inkscape:cy="18.536142"
     inkscape:window-x="-9"
     inkscape:window-y="-9"
     inkscape:window-maximized="1"
     inkscape:current-layer="svg1922" />
  <g
     id="g832"
     transform="matrix(1.1313559,0,0,1.1313559,7.8323769e-4,4.1620321e-4)">
    <g
       transform="matrix(0.06923,0,0,0.06923,0,-2.648)"
       id="g2475"
       style="fill:#103e68">
      <g
         id="g2417"
         style="fill:#103e68">
        <g
           id="_x33__13_"
           style="fill:#103e68">
          <g
             id="g2414"
             style="fill:#103e68">
            <path
               d="M 573.75,267.75 459,344.25 c 0,-23.218 -10.557,-43.758 -26.89,-57.796 38.881,-23.428 65.14,-65.637 65.14,-114.33 0,-73.938 -59.938,-133.88 -133.88,-133.88 -73.942,0 -133.88,59.938 -133.88,133.88 0,37.504 15.51,71.317 40.373,95.625 h -70.151 c 18.322,-20.33 29.778,-46.971 29.778,-76.5 0,-63.38 -51.37,-114.75 -114.75,-114.75 -63.38,0 -114.75,51.37 -114.75,114.75 0,34.578 15.625,65.216 39.818,86.254 C 16.189,290.527 -0.01,315.37 -0.01,344.249 v 153 c 0,42.247 34.253,76.5 76.5,76.5 h 306 c 42.247,0 76.5,-34.253 76.5,-76.5 l 114.75,76.5 c 21.133,0 38.25,-17.117 38.25,-38.25 v -229.5 c 0,-21.133 -17.117,-38.25 -38.25,-38.25 z m -459,0 c -42.247,0 -76.5,-34.253 -76.5,-76.5 0,-42.247 34.253,-76.5 76.5,-76.5 42.247,0 76.5,34.253 76.5,76.5 0,42.247 -34.253,76.5 -76.5,76.5 z m 248.62,0.21 c -52.938,0 -95.835,-42.917 -95.835,-95.835 0,-52.938 42.917,-95.835 95.835,-95.835 52.918,0 95.835,42.897 95.835,95.835 0,52.938 -42.898,95.835 -95.835,95.835 z"
               id="path2412"
               inkscape:connector-curvature="0"
               style="fill:#103e68" />
          </g>
        </g>
      </g>
    </g>
    <g
       transform="translate(0,-0.25)"
       id="g2496">
      <circle
         style="fill:#ffffff;paint-order:markers fill stroke"
         r="7.6100001"
         cy="26.806"
         cx="16.281"
         id="path2483" />
      <text
         xml:space="preserve"
         style="font-weight:bold;font-size:10.46399975px;line-height:1.25;font-family:sans-serif;font-variant-ligatures:normal;font-variant-position:normal;font-variant-caps:normal;font-variant-numeric:normal;font-variant-alternates:normal;font-feature-settings:normal;text-indent:0;text-decoration:none;text-decoration-line:none;text-decoration-style:solid;text-decoration-color:#000000;letter-spacing:0px;word-spacing:0px;text-transform:none;text-orientation:mixed;dominant-baseline:auto;white-space:normal;shape-padding:0;opacity:0.97000002;fill:#083864;fill-opacity:0.99607999;stroke-width:0.68252999"
         word-spacing="0px"
         letter-spacing="0px"
         font-weight="bold"
         font-size="10.464px"
         dominant-baseline="auto"
         y="30.781433"
         x="14.493142"
         id="text2479"><tspan
           y="30.781433"
           x="14.493142"
           id="tspan2477"
           style="stroke-width:0.68252999">i</tspan></text>
    </g>
  </g>
</svg>
