<?xml version="1.0" encoding="UTF-8"?>
<svg id="svg1922" width="42.369" height="37.073" version="1.1" viewBox="0 0 42.369 37.073" xmlns="http://www.w3.org/2000/svg" xmlns:osb="http://www.openswatchbook.org/uri/2009/osb">
 <g id="g2475" transform="matrix(.06923 0 0 .06923 0 -2.648)" fill="#103e68">
  <g id="g2417" fill="#103e68">
   <g id="_x33__13_" fill="#103e68">
    <g id="g2414" fill="#103e68">
     <path id="path2412" d="m573.75 267.75-114.75 76.5c0-23.218-10.557-43.758-26.89-57.796 38.881-23.428 65.14-65.637 65.14-114.33 0-73.938-59.938-133.88-133.88-133.88s-133.88 59.938-133.88 133.88c0 37.504 15.51 71.317 40.373 95.625h-70.151c18.322-20.33 29.778-46.971 29.778-76.5 0-63.38-51.37-114.75-114.75-114.75s-114.75 51.37-114.75 114.75c0 34.578 15.625 65.216 39.818 86.254-23.619 13.024-39.818 37.867-39.818 66.746v153c0 42.247 34.253 76.5 76.5 76.5h306c42.247 0 76.5-34.253 76.5-76.5l114.75 76.5c21.133 0 38.25-17.117 38.25-38.25v-229.5c0-21.133-17.117-38.25-38.25-38.25zm-459 0c-42.247 0-76.5-34.253-76.5-76.5s34.253-76.5 76.5-76.5 76.5 34.253 76.5 76.5-34.253 76.5-76.5 76.5zm248.62 0.21c-52.938 0-95.835-42.917-95.835-95.835 0-52.938 42.917-95.835 95.835-95.835s95.835 42.897 95.835 95.835-42.898 95.835-95.835 95.835z" fill="#103e68"/>
    </g>
   </g>
  </g>
 </g>
 <g id="g2496" transform="translate(0 -.25)">
  <circle id="path2483" cx="16.281" cy="26.806" r="7.61" fill="#fff" style="paint-order:markers fill stroke"/>
  <text id="text2479" x="14.493142" y="30.781433" dominant-baseline="auto" fill="#083864" fill-opacity=".99608" font-family="sans-serif" font-size="10.464px" font-weight="bold" letter-spacing="0px" opacity=".97" stroke-width=".68253" word-spacing="0px" style="font-feature-settings:normal;font-variant-alternates:normal;font-variant-caps:normal;font-variant-ligatures:normal;font-variant-numeric:normal;font-variant-position:normal;line-height:1.25;shape-padding:0;text-decoration-color:#000000;text-decoration-line:none;text-decoration-style:solid;text-indent:0;text-orientation:mixed;text-transform:none;white-space:normal" xml:space="preserve"><tspan id="tspan2477" x="14.493142" y="30.781433" stroke-width=".68253">i</tspan></text>
 </g>
</svg>
