<?xml version="1.0" encoding="UTF-8" standalone="no"?>
<svg
   xmlns:dc="http://purl.org/dc/elements/1.1/"
   xmlns:cc="http://creativecommons.org/ns#"
   xmlns:rdf="http://www.w3.org/1999/02/22-rdf-syntax-ns#"
   xmlns:svg="http://www.w3.org/2000/svg"
   xmlns="http://www.w3.org/2000/svg"
   xmlns:sodipodi="http://sodipodi.sourceforge.net/DTD/sodipodi-0.dtd"
   xmlns:inkscape="http://www.inkscape.org/namespaces/inkscape"
   width="70"
   height="40"
   viewBox="0 0 70 40"
   version="1.1"
   id="svg4"
   sodipodi:docname="search.svg"
   inkscape:version="0.92.3 (2405546, 2018-03-11)">
  <metadata
     id="metadata10">
    <rdf:RDF>
      <cc:Work
         rdf:about="">
        <dc:format>image/svg+xml</dc:format>
        <dc:type
           rdf:resource="http://purl.org/dc/dcmitype/StillImage" />
        <dc:title></dc:title>
      </cc:Work>
    </rdf:RDF>
  </metadata>
  <defs
     id="defs8" />
  <sodipodi:namedview
     pagecolor="#ffffff"
     bordercolor="#666666"
     borderopacity="1"
     objecttolerance="10"
     gridtolerance="10"
     guidetolerance="10"
     inkscape:pageopacity="0"
     inkscape:pageshadow="2"
     inkscape:window-width="1920"
     inkscape:window-height="1013"
     id="namedview6"
     showgrid="false"
     inkscape:zoom="5.2149125"
     inkscape:cx="-23.701267"
     inkscape:cy="33.50091"
     inkscape:window-x="1911"
     inkscape:window-y="-9"
     inkscape:window-maximized="1"
     inkscape:current-layer="svg4" />
  <g
     id="g849">
    <rect
       ry="5.7140222"
       y="2.857933"
       x="3.5728798"
       height="34.284134"
       width="62.85424"
       id="rect817"
       style="opacity:1;fill:#083963;fill-opacity:0.59607843;stroke:none;stroke-width:21.07045746;stroke-linecap:round;stroke-linejoin:miter;stroke-miterlimit:4;stroke-dasharray:none;stroke-dashoffset:0;stroke-opacity:0.99607843;paint-order:markers fill stroke" />
    <rect
       style="opacity:1;fill:#b6c2c9;fill-opacity:0.83921569;stroke:none;stroke-width:16.88830185;stroke-linecap:round;stroke-linejoin:miter;stroke-miterlimit:4;stroke-dasharray:none;stroke-dashoffset:0;stroke-opacity:0.99607843;paint-order:markers fill stroke"
       id="rect836"
       width="50.860336"
       height="27.219028"
       x="9.5698318"
       y="6.3904858"
       ry="4.5365047" />
    <path
       inkscape:connector-curvature="0"
       style="fill:#093964;fill-opacity:1;stroke-width:2.6849134"
       id="path2"
       d="m 33.56032,9.1899725 c -5.18188,0 -9.397196,4.2153145 -9.397196,9.3971975 0,5.181884 4.215316,9.397198 9.397196,9.397198 1.584099,0 3.14135,-0.375888 4.456958,-1.100816 a 2.6849135,2.6849135 0 0 0 0.349038,0.349039 l 2.684913,2.684915 a 2.7386117,2.7386117 0 1 0 3.866277,-3.866277 l -2.684915,-2.684913 a 2.6849135,2.6849135 0 0 0 -0.429585,-0.349038 c 0.724926,-1.315608 1.181362,-2.846007 1.181362,-4.456956 0,-5.181883 -4.215314,-9.397198 -9.397198,-9.397198 z m 0,2.6849135 c 3.732031,0 6.712286,2.980255 6.712286,6.712284 0,1.772043 -0.644379,3.409841 -1.772043,4.618052 -0.02684,0.02684 -0.05369,0.05369 -0.08055,0.08055 a 2.6849135,2.6849135 0 0 0 -0.349037,0.34904 c -1.181362,1.073963 -2.792309,1.691494 -4.537504,1.691494 -3.732029,0 -6.712285,-2.980253 -6.712285,-6.712284 0,-3.732029 2.980256,-6.712282 6.712285,-6.712282 z" />
  </g>
</svg>
