<?xml version="1.0" encoding="UTF-8" standalone="no"?>
<!-- Generator: Adobe Illustrator 19.0.0, SVG Export Plug-In . SVG Version: 6.00 Build 0)  -->

<svg
   xmlns:dc="http://purl.org/dc/elements/1.1/"
   xmlns:cc="http://creativecommons.org/ns#"
   xmlns:rdf="http://www.w3.org/1999/02/22-rdf-syntax-ns#"
   xmlns:svg="http://www.w3.org/2000/svg"
   xmlns="http://www.w3.org/2000/svg"
   xmlns:sodipodi="http://sodipodi.sourceforge.net/DTD/sodipodi-0.dtd"
   xmlns:inkscape="http://www.inkscape.org/namespaces/inkscape"
   version="1.1"
   id="Capa_1"
   x="0px"
   y="0px"
   viewBox="0 0 78.128517 56.848317"
   xml:space="preserve"
   sodipodi:docname="uploadmovie.svg"
   width="78.128517"
   height="56.848316"
   inkscape:version="0.92.3 (2405546, 2018-03-11)"><metadata
   id="metadata43"><rdf:RDF><cc:Work
       rdf:about=""><dc:format>image/svg+xml</dc:format><dc:type
         rdf:resource="http://purl.org/dc/dcmitype/StillImage" /><dc:title /></cc:Work></rdf:RDF></metadata><defs
   id="defs41" /><sodipodi:namedview
   pagecolor="#ffffff"
   bordercolor="#666666"
   borderopacity="1"
   objecttolerance="10"
   gridtolerance="10"
   guidetolerance="10"
   inkscape:pageopacity="0"
   inkscape:pageshadow="2"
   inkscape:window-width="1920"
   inkscape:window-height="1003"
   id="namedview39"
   showgrid="false"
   inkscape:zoom="3.8577851"
   inkscape:cx="0.4058243"
   inkscape:cy="1.9432605"
   inkscape:window-x="-9"
   inkscape:window-y="-9"
   inkscape:window-maximized="1"
   inkscape:current-layer="Capa_1" />
<g
   id="g6"
   transform="matrix(0.15964144,0,0,0.15964144,0,-10.640102)"
   style="fill:#083864;fill-opacity:0.99607843;stroke:none;stroke-opacity:1">
	<g
   id="g4"
   style="fill:#083864;fill-opacity:0.99607843;stroke:none;stroke-opacity:1">
		<path
   d="M 382.4,422.75 H 303.3 282 277.4 v -106.1 h 34.7 c 8.8,0 14,-10 8.8,-17.2 l -67.5,-93.4 c -4.3,-6 -13.2,-6 -17.5,0 l -67.5,93.4 c -5.2,7.2 -0.1,17.2 8.8,17.2 h 34.7 v 106.1 H 207.3 186 94.3 C 41.8,419.85 0,370.75 0,317.55 c 0,-36.7 19.9,-68.7 49.4,-86 -2.7,-7.3 -4.1,-15.1 -4.1,-23.3 0,-37.5 30.3,-67.8 67.8,-67.8 8.1,0 15.9,1.4 23.2,4.1 21.7,-46 68.5,-77.9 122.9,-77.9 70.4,0.1 128.4,54 135,122.7 54.1,9.3 95.2,59.4 95.2,116.1 0,60.6 -47.2,113.1 -107,117.3 z"
   id="path2"
   inkscape:connector-curvature="0"
   style="fill:#083864;fill-opacity:0.99607843;stroke:none;stroke-opacity:1" />
	</g>
</g>
<g
   id="g8"
   transform="translate(0,-66.65)">
</g>
<g
   id="g10"
   transform="translate(0,-66.65)">
</g>
<g
   id="g12"
   transform="translate(0,-66.65)">
</g>
<g
   id="g14"
   transform="translate(0,-66.65)">
</g>
<g
   id="g16"
   transform="translate(0,-66.65)">
</g>
<g
   id="g18"
   transform="translate(0,-66.65)">
</g>
<g
   id="g20"
   transform="translate(0,-66.65)">
</g>
<g
   id="g22"
   transform="translate(0,-66.65)">
</g>
<g
   id="g24"
   transform="translate(0,-66.65)">
</g>
<g
   id="g26"
   transform="translate(0,-66.65)">
</g>
<g
   id="g28"
   transform="translate(0,-66.65)">
</g>
<g
   id="g30"
   transform="translate(0,-66.65)">
</g>
<g
   id="g32"
   transform="translate(0,-66.65)">
</g>
<g
   id="g34"
   transform="translate(0,-66.65)">
</g>
<g
   id="g36"
   transform="translate(0,-66.65)">
</g>
</svg>